#!OML:ASF Y:\EmotionMaleHayes\Project 1\Capture day 1\Session 1\Male1.ASF
:FULLY-SPECIFIED
:DEGREES
138
root -30.2028 16.9392 1.54356 1.91964 87.4458 6.83808
lowerback 6.0126 0.937007 -1.94938
upperback 7.07338 1.43533 0.0769457
thorax 3.90311 0.732392 1.14132
lowerneck -22.5196 2.3403 3.45207
upperneck 29.8541 2.90962 -1.12399
head 14.0308 1.64807 -0.464688
rclavicle 1.71452e-015 3.72721e-015
rhumerus -25.7417 17.3722 -94.3379
rradius 28.7238
rwrist 2.62803
rhand -10.1223 -32.8754
rfingers 7.12502
rthumb 15.8659 -62.2454
lclavicle 1.71452e-015 3.72721e-015
lhumerus -21.7872 -12.5152 91.8916
lradius 22.6957
lwrist -11.7427
lhand -18.3653 -25.4941
lfingers 7.12502
lthumb 7.91779 4.33763
rfemur 9.55593 -1.53311 15.4779
rtibia 7.36076
rfoot -16.3527 -0.823183
rtoes 6.55869
lfemur 6.69925 1.55366 -11.5196
ltibia 14.4882
lfoot -16.3145 9.49709
ltoes -20.4806
139
root -30.2066 16.9385 1.55402 -3.4157 87.7567 1.53819
lowerback 6.14001 0.885952 -1.70944
upperback 7.07531 1.37211 0.145686
thorax 3.83859 0.711364 1.0773
lowerneck -22.5522 2.37169 3.53359
upperneck 29.9336 2.94683 -1.17709
head 14.0761 1.66739 -0.492015
rclavicle -1.11816e-016 -2.78299e-015
rhumerus -25.8992 17.5031 -94.3981
rradius 28.9291
rwrist 2.43091
rhand -10.0187 -33.0982
rfingers 7.12502
rthumb 15.9656 -62.4603
lclavicle -1.11816e-016 -2.78299e-015
lhumerus -21.7258 -12.6902 91.8819
lradius 22.6529
lwrist -11.5808
lhand -18.3455 -25.5271
lfingers 7.12502
lthumb 7.93687 4.30393
rfemur 9.67689 -1.40642 15.8922
rtibia 7.20465
rfoot -16.3014 -1.20806
rtoes 7.03835
lfemur 6.53581 1.49765 -11.1772
ltibia 14.7343
lfoot -16.3974 9.29768
ltoes -20.2099
140
root -30.2078 16.9346 1.56374 -4.61867 87.9637 0.428904
lowerback 6.26878 0.915565 -1.6675
upperback 7.1197 1.41454 0.189707
thorax 3.81208 0.735449 1.09617
lowerneck -22.5731 2.34387 3.45843
upperneck 29.9995 2.94892 -1.19887
head 14.1081 1.65814 -0.486834
rclavicle 3.13086e-015 2.5842e-015
rhumerus -25.9832 17.3679 -94.2988
rradius 29.0229
rwrist 2.58542
rhand -9.87597 -33.3218
rfingers 7.12502
rthumb 16.1031 -62.6728
lclavicle 3.13086e-015 2.5842e-015
lhumerus -21.6806 -12.9564 91.8965
lradius 22.5835
lwrist -11.47
lhand -17.8606 -25.9429
lfingers 7.12502
lthumb 8.40487 3.86984
rfemur 9.80307 -1.56074 15.933
rtibia 7.22927
rfoot -16.2939 -1.24623
rtoes 7.26517
lfemur 6.50809 1.47199 -11.0782
ltibia 14.8888
lfoot -16.451 9.08329
ltoes -20.102
141
root -30.2033 16.9307 1.57005 1.90406 88.2342 6.97687
lowerback 6.23401 0.920412 -1.71087
upperback 7.18608 1.42943 0.0582513
thorax 3.90356 0.745303 0.986031
lowerneck -22.6695 2.31443 3.53095
upperneck 30.1519 2.91429 -1.28554
head 14.1974 1.64156 -0.538685
rclavicle 3.10601e-015 -7.85199e-015
rhumerus -25.9513 17.0412 -94.2641
rradius 29.0338
rwrist 3.01249
rhand -9.79039 -33.4562
rfingers 7.12502
rthumb 16.1855 -62.8005
lclavicle 3.10601e-015 -7.85199e-015
lhumerus -21.5836 -13.294 91.7316
lradius 22.4546
lwrist -11.4256
lhand -17.0994 -26.5239
lfingers 7.12502
lthumb 9.13944 3.25805
rfemur 9.89364 -1.97969 15.5414
rtibia 7.25076
rfoot -16.4506 -0.950272
rtoes 8.44794
lfemur 6.47588 1.18344 -11.4178
ltibia 14.921
lfoot -16.4749 9.0883
ltoes -20.1332
142
root -30.2065 16.9286 1.58079 11.5817 88.6917 16.6427
lowerback 6.23475 0.844475 -1.84511
upperback 7.25227 1.33265 -0.0177108
thorax 3.97551 0.694094 0.986404
lowerneck -22.6961 2.33083 3.62985
upperneck 30.2347 2.94762 -1.40552
head 14.2447 1.65188 -0.597008
rclavicle -3.09359e-015 -1.49089e-016
rhumerus -25.9195 17.042 -94.2951
rradius 29.1351
rwrist 2.9065
rhand -9.98821 -33.2737
rfingers 7.12502
rthumb 15.995 -62.6334
lclavicle -3.09359e-015 -1.49089e-016
lhumerus -21.5899 -13.0918 91.5335
lradius 22.7713
lwrist -11.7546
lhand -16.5759 -26.604
lfingers 7.12502
lthumb 9.64451 3.15517
rfemur 9.98468 -2.38667 15.2468
rtibia 7.19556
rfoot -16.5756 -0.921869
rtoes 9.19081
lfemur 6.2593 0.825443 -11.6969
ltibia 15.0863
lfoot -16.4345 9.03633
ltoes -20.1203
143
root -30.2059 16.9293 1.58745 16.0261 88.9055 21.1625
lowerback 6.39072 0.86521 -1.72768
upperback 7.2456 1.36511 -0.0883352
thorax 3.88423 0.719842 0.843645
lowerneck -22.4964 2.36801 3.73993
upperneck 30.2463 3.00516 -1.48449
head 14.2124 1.68267 -0.638223
rclavicle 7.78987e-015 -4.37326e-015
rhumerus -26.0236 16.8909 -94.3624
rradius 29.212
rwrist 2.65883
rhand -10.1519 -33.0655
rfingers 7.12502
rthumb 15.8373 -62.4378
lclavicle 7.78987e-015 -4.37326e-015
lhumerus -21.717 -13.4957 91.513
lradius 23.0308
lwrist -11.475
lhand -16.3751 -26.5233
lfingers 7.12502
lthumb 9.8383 3.22686
rfemur 10.0639 -2.6754 15.1256
rtibia 7.27313
rfoot -16.6196 -0.916371
rtoes 8.9603
lfemur 6.20476 0.715974 -11.7317
ltibia 15.2221
lfoot -16.4216 8.95636
ltoes -20.1857
144
root -30.2166 16.9238 1.59983 7.84429 89.2919 12.8806
lowerback 6.44312 0.846556 -1.45892
upperback 7.2174 1.34591 -0.0286207
thorax 3.82889 0.721363 0.754193
lowerneck -22.3928 2.40319 3.73758
upperneck 30.25 3.07941 -1.51486
head 14.1946 1.71251 -0.63681
rclavicle 2.75814e-015 4.96962e-016
rhumerus -26.0502 16.7021 -94.2797
rradius 29.2547
rwrist 2.66136
rhand -10.1073 -33.0616
rfingers 7.12502
rthumb 15.8804 -62.4304
lclavicle 2.75814e-015 4.96962e-016
lhumerus -21.7044 -13.9752 91.5807
lradius 23.1792
lwrist -11.11
lhand -16.2889 -26.5128
lfingers 7.12502
lthumb 9.92147 3.23343
rfemur 9.86061 -2.84114 15.4565
rtibia 7.52422
rfoot -16.7563 -1.15172
rtoes 8.44684
lfemur 5.76119 0.724659 -11.3631
ltibia 15.602
lfoot -16.452 8.61107
ltoes -20.2988
